# xmcd CD database file
#
# Track frame offsets:
#	150
#	13168
#	23727
#	36186
#	66142
#	89408
#	101423
#	114214
#	124426
#	135830
#	159847
#	178962
#	210382
#	223714
#	239694
#	257943
#	272536
#	287491
#	297773
#	322952
#
# Disc length: 4625 seconds
#
# Revision: 1
# Processed by: cddbd v1.5.2PL0 Copyright (c) Steve Scherf et al.
# Submitted via: CDex 2.23
#
DISCID=1e120f14
DTITLE=Livin' Blues - 2014 The Golden Years of Dutch Pop Music CD1
DYEAR=2014
DGENRE=Blues
TTITLE0=Murphy Mc Coy
TTITLE1=My Sister Kate
TTITLE2=You Better Watch Yourself (Sonny Boy)
TTITLE3=One Night Blues
TTITLE4=Wang Dang Doodle
TTITLE5=Crazy Woman
TTITLE6=Black Lisa (Poor Elijah)
TTITLE7=Red Mountain River
TTITLE8=Choise
TTITLE9=Selection
TTITLE10=L.B. Boogie
TTITLE11=Johnny W
TTITLE12=Please Don't Leave Me
TTITLE13=Sweet Suzanne
TTITLE14=Poinsetta Petal
TTITLE15=Gamble On
TTITLE16=Boogie Woogie Woman
TTITLE17=Ricochet
TTITLE18=Shylina
TTITLE19=That Night
EXTD=YEAR: 2014
EXTT0=
EXTT1=
EXTT2=
EXTT3=
EXTT4=
EXTT5=
EXTT6=
EXTT7=
EXTT8=
EXTT9=
EXTT10=
EXTT11=
EXTT12=
EXTT13=
EXTT14=
EXTT15=
EXTT16=
EXTT17=
EXTT18=
EXTT19=
PLAYORDER=
